<svg width="155" height="44" viewBox="0 0 155 44" fill="none" xmlns="http://www.w3.org/2000/svg">
<path fill-rule="evenodd" clip-rule="evenodd" d="M59.937 1.70794H53.0049V20.3264H59.4069L63.0229 19.8989L63.4877 19.7019L63.9507 19.5049L64.3493 19.2754L64.7806 19.0784L65.1113 18.7829L65.4773 18.5208L65.6096 18.3563L65.7754 18.2244L65.9086 18.06L66.0735 17.9298L66.2729 17.5675L66.3725 17.3713L66.5048 17.2069L66.6706 16.8129L66.7368 16.6159V16.549L66.7703 16.5156L66.8364 16.4505V16.2535L66.8699 16.2201L66.937 16.0231V15.8261L66.9705 15.7927L67.0366 15.5957L67.0701 15.1366L67.1372 14.6775L67.0375 13.8561L66.8717 13.1006L66.7059 12.74L66.5727 12.4445L66.2085 11.8869L65.7111 11.3936L65.4121 11.164L65.1466 10.9996L64.7824 10.8017L64.4508 10.6715L63.687 10.4411L64.1844 10.0471L64.6492 9.65309L64.7162 9.52117L64.7497 9.45609L64.8159 9.42267L65.0152 9.22566L65.3803 8.7657L65.6123 8.23978L65.6793 7.94428L65.7781 7.68131L65.8777 7.09119L65.9121 6.76227V6.5978L65.9456 6.46676L65.8786 5.87575L65.779 5.28475L65.547 4.69374L65.2824 4.1687L64.8512 3.57769L64.3864 3.08519L63.7893 2.65865L63.1587 2.2963L59.937 1.70794ZM59.705 4.63042L61.4301 4.92592L61.6947 5.05697L61.9601 5.25397L62.1921 5.45097L62.3905 5.71305L62.5237 5.97601L62.6225 6.27152L62.6886 6.60044L62.7221 6.99533L62.6886 7.12637V7.29083L62.6225 7.58633L62.5237 7.84841L62.4567 7.97945L62.4232 8.04541V8.14392L62.357 8.17734L62.3235 8.24242L62.2565 8.37346L62.058 8.60388L61.8261 8.80088L61.5941 8.99876L59.4713 9.45784H56.2557V4.6313L59.705 4.63042ZM56.2557 12.281H60.3021L62.4911 12.5756L62.79 12.74L63.0555 12.9379L63.2875 13.1675L63.4868 13.4304L63.6191 13.6925L63.7523 14.0214L63.8184 14.3495L63.8519 14.7435L63.8184 14.8103V15.1058L63.7523 15.4664L63.6191 15.761L63.4868 16.0899L63.2875 16.3529L63.0555 16.615L62.79 16.812H62.6895V16.8454L62.6234 16.9114L62.4902 17.0415L60.0701 17.4355H56.2557V12.281ZM85.9411 20.3264H89.1937V1.70794H85.9411V20.3264ZM109.26 20.3264H112.51V1.70794H109.26V20.3264ZM128.133 2.62786L125.811 1.87152L122.859 1.57601H122.097L121.4 1.64198L120.736 1.74048L120.139 1.90494L119.543 2.0694L119.012 2.29894L118.482 2.5619L118.049 2.92336L117.619 3.25141L117.254 3.64542L116.921 4.03942L116.69 4.53192L116.458 4.99189L116.325 5.54947L116.225 6.10793L116.191 6.7649V7.32249L116.291 7.84841L116.391 8.34004L116.59 8.83254L116.756 9.22743L117.021 9.62143L117.321 9.94947L117.684 10.2775L118.382 10.77L119.211 11.2634L120.039 11.624L121.002 11.9854L124.32 13.266L124.618 13.4304L124.916 13.6608L125.381 14.1516L125.546 14.4146L125.679 14.7109L125.811 15.4004L125.744 15.6625L125.679 15.958L125.614 16.0565L125.579 16.1893L125.48 16.4505L125.281 16.6475L125.083 16.8454L124.949 16.9114L124.883 16.943L124.85 17.009L124.618 17.206L122.063 17.7979L119.111 17.3379L118.415 17.075L117.852 16.8454L117.353 16.5825L116.921 16.3195L115.595 18.9139L116.093 19.2094L116.724 19.5375L117.387 19.7996L118.15 20.0951L121.898 20.555L122.693 20.5225L123.456 20.4574L124.152 20.3264L124.483 20.2261L124.85 20.161L125.148 20.0309L125.48 19.9306L126.077 19.7019L126.342 19.5375L126.64 19.4064L127.172 19.0775L127.37 18.848L127.603 18.651L128.001 18.2235L128.332 17.7645L128.466 17.5015L128.531 17.3705L128.564 17.3045L128.63 17.272V17.1735L128.664 17.1066L128.731 16.9765L128.862 16.7135L128.929 16.418L129.028 16.1559L129.129 15.5649L129.194 14.9739L129.129 14.3829L129.062 13.857L128.929 13.3645L128.764 12.9379L128.531 12.478L128.299 12.1165L128.001 11.755L127.703 11.4595L126.94 10.9019L126.144 10.442L125.281 10.0146L124.385 9.68651L121.067 8.406L120.704 8.20899L120.406 8.01199L120.139 7.78245L119.974 7.55291L119.775 7.2574L119.674 6.9619L119.574 6.63298V6.33748L119.608 5.84498L119.807 5.41843L120.073 5.05697L120.537 4.76234L122.791 4.33492H123.456L124.152 4.43342L124.815 4.53192L125.513 4.69551L126.144 4.86084L126.805 5.08951L128.066 5.64798L128.133 2.62786ZM135.364 9.32593V1.70794H132.113V20.3264H135.364V12.281H144.453V20.3264H147.704V1.70794H144.453V9.32593H135.364ZM64.3484 38.8762L62.723 39.4681L60.467 39.7645L59.7712 39.6985L59.1414 39.6L58.5109 39.4355L57.9799 39.2377L57.4499 38.943L56.9851 38.615L56.5203 38.2535L56.1552 37.827L55.7574 37.3011L55.4593 36.8094L55.193 36.2501L55.0281 35.6916L54.8287 35.0681L54.7291 34.4445L54.6629 33.7876V32.4094L54.7626 31.7534L55.0616 30.537L55.26 29.9452L55.559 29.4201L55.8571 28.8959L56.2557 28.4351L56.62 27.976L57.0512 27.6154L57.5151 27.2531L58.0461 27.0244L58.5761 26.794L59.1741 26.6304L59.7712 26.531L60.467 26.4976L62.723 26.794L64.3484 27.4176L65.3433 24.7246L64.7462 24.43L64.1491 24.2004L63.5194 24.0026L62.8888 23.8715L62.1921 23.7396L61.4954 23.6745L60.766 23.6086H60.0701L59.0083 23.642L58.0461 23.773L57.1509 24.0026L56.3219 24.3315L55.5255 24.7246L54.8287 25.2171L54.1655 25.7765L53.6019 26.4334L53.0375 27.0886L52.5736 27.8432L52.1423 28.5996L51.8442 29.4535L51.5779 30.2741L51.4121 31.194L51.3124 32.1139L51.2789 33.1315L51.3124 34.149L51.4121 35.1675L51.5779 36.1199L51.6775 36.5465L51.8442 37.0056L52.1423 37.827L52.5736 38.5816L53.0375 39.3045L53.6019 39.9931L54.1655 40.5516L54.8287 41.1101L55.5255 41.5375L56.3219 41.9306L57.1509 42.1944L58.0461 42.424L59.0083 42.555L60.0701 42.6535L65.3433 41.5375L64.3484 38.8762ZM135.796 24.7246L133.34 23.9049L130.553 23.6086L129.492 23.642L128.531 23.773L127.636 24.0026L126.805 24.3315L126.011 24.7246L125.314 25.2171L124.651 25.7765L124.087 26.4334L123.523 27.0886L123.024 27.8432L122.594 28.5996L122.296 29.4535L122.029 30.2741L121.865 31.194L121.765 32.1139L121.73 33.1315L121.765 34.149L121.865 35.1675L122.029 36.1199L122.13 36.5465L122.296 37.0056L122.594 37.827L123.024 38.5816L123.523 39.3045L124.087 39.9931L124.651 40.5516L125.314 41.1101L126.011 41.5375L126.805 41.9306L127.636 42.1944L128.531 42.424L129.492 42.555L130.553 42.6535L131.251 42.5876L131.981 42.5216L132.644 42.424L132.975 42.3571L133.042 42.3246H133.34L133.475 42.2586L133.541 42.2261H133.638L133.971 42.161L134.104 42.0951L134.169 42.0625H134.269L134.602 41.9966L135.198 41.767L135.796 41.5375L134.834 38.8762L133.175 39.4681L130.92 39.7645L130.223 39.6985L129.592 39.6L128.962 39.4355L128.431 39.2377L127.9 38.943L127.436 38.615L127.007 38.2535L126.64 37.827L126.243 37.3011L125.944 36.8094L125.679 36.2501L125.48 35.6916L125.281 35.0681L125.181 34.4445L125.114 33.7876V32.4094L125.214 31.7534L125.513 30.537L125.712 29.9452L126.011 29.4201L126.309 28.8959L126.707 28.4351L127.072 27.976L127.503 27.6154L127.968 27.2531L128.498 27.0244L129.028 26.794L129.626 26.6304L130.223 26.531L130.92 26.4976L133.175 26.794L134.834 27.4176L135.796 24.7246ZM81.2994 39.8955L81.3973 39.6985L81.5296 39.534L81.7951 39.2051L82.2943 38.484L82.6902 37.6951L82.7555 37.4646L82.8552 37.2676L83.0554 36.8736L83.1533 36.4154L83.2873 35.9889L83.4858 35.069L83.5854 34.0831L83.618 33.558L83.6833 33.0655L83.618 31.982L83.5202 30.9979L83.32 30.0463L83.0871 29.1589L82.7238 28.3049L82.3242 27.5504L81.8286 26.8274L81.2977 26.2039L80.6327 25.5803L80.2693 25.284L79.9368 25.0535L79.2083 24.627L78.4437 24.2664L77.6147 23.9718L77.1508 23.8399L76.7195 23.7739L75.7908 23.6437L74.8286 23.6103L73.8002 23.6437L72.8716 23.7739L71.9764 24.0043L71.18 24.2998L70.3845 24.6613L69.6877 25.1204L68.991 25.6788L68.4274 26.3024L67.8312 26.9277L67.3329 27.6805L66.9026 28.436L66.5701 29.2908L66.272 30.1448L66.1062 31.0964L65.9739 32.0489L65.9412 33.1324L65.9739 34.1499L66.0074 34.6424L66.1062 35.1683L66.272 36.1208L66.5701 37.0073L66.8682 37.8287L67.2994 38.5833L67.7968 39.3054L68.3613 39.994L68.9584 40.5525L69.6551 41.0784L70.351 41.5049L71.1474 41.8989L71.9764 42.1619L72.8716 42.3923L73.8002 42.4908L74.8286 42.5885L75.2934 42.5225L75.3269 42.4908H75.7917L76.7204 42.3589L77.1516 42.2279L77.6155 42.1302L78.0133 41.9992L78.4446 41.869L78.8097 41.6703L79.2092 41.4733L79.9377 41.0467L80.2702 40.7512L80.6336 40.4883L81.2994 39.8955ZM78.7444 28.2064L79.0752 28.633L79.375 29.1589L79.6405 29.6839L79.8716 30.3084L80.0382 30.9003L80.1705 31.5889L80.2358 32.2775L80.3011 33.0655L80.2702 33.7876L80.2032 34.5096L80.0709 35.1666L79.9051 35.8227L79.6722 36.4146L79.4068 36.973L79.0743 37.4646L78.7435 37.958L78.3114 38.3529L77.9145 38.7135L77.4497 39.0099L76.9858 39.3045L76.4549 39.469L76.1894 39.5349L76.0571 39.5666L75.9584 39.6325H75.7926L75.6611 39.666L75.3957 39.731H75.0967L74.8312 39.7645L74.2015 39.731L73.6371 39.6325L73.1062 39.4681L72.6087 39.3036L72.1113 39.009L71.68 38.7126L71.2823 38.352L70.9172 37.9571L70.5194 37.4638L70.2204 36.9721L69.955 36.4137L69.7556 35.8543L69.5563 35.1991L69.424 34.5422L69.3253 33.8527V32.3426L69.424 31.6197L69.5563 30.9302L69.7556 30.3066L69.955 29.6822L70.2204 29.1571L70.5194 28.6312L70.9172 28.2047L71.2823 27.779L71.68 27.4167L72.1113 27.0877L72.6087 26.8591L73.1062 26.6287L73.6371 26.5302L74.2015 26.4325H75.3957L75.9592 26.5302L76.4567 26.6287L76.9876 26.8591L77.4515 27.0877L77.9163 27.4167L78.3132 27.779L78.7444 28.2064ZM101.133 23.7396H97.9144V35.4287L97.8491 35.9555L97.7838 36.4805L97.6516 36.9396L97.551 37.4004L97.3535 37.761L97.1533 38.1216L97.021 38.2535L96.9539 38.3195H96.9204V38.418L96.7881 38.5482L96.7229 38.615H96.6885V38.7135L96.3577 38.943L96.0579 39.1392L95.8594 39.2051H95.7598V39.2377L95.6927 39.3045L95.4943 39.3696H95.3947V39.4021L95.3294 39.4681H95.0966V39.5015L94.8972 39.5666L94.466 39.6325L94.0012 39.666L93.5373 39.6985L93.0072 39.666L92.5424 39.6325L92.1112 39.5666L91.7134 39.4681L90.9505 39.1392L90.618 38.943L90.3199 38.7135L90.0219 38.418L89.789 38.1216L89.5915 37.761L89.4574 37.4004L89.3242 36.9396L89.259 36.4805L89.1937 35.9555V23.7396H85.9411V36.2501L86.0407 37.0724L86.2083 37.827L86.4394 38.5816L86.6713 39.2051L87.0365 39.8287L87.4677 40.388L87.9652 40.8805L88.4299 41.2411L88.9935 41.6017L89.5915 41.8981L90.2873 42.161L90.9832 42.3246L91.7787 42.4574L92.5768 42.555L93.4703 42.5876L94.3337 42.555L95.1636 42.4899L95.9256 42.3571L96.6558 42.1944L97.3191 41.9306L97.4514 41.833L97.6172 41.767L97.9488 41.6351L98.2142 41.439L98.3474 41.3396L98.5123 41.2745L99.045 40.8805L99.2426 40.6175L99.3431 40.4856L99.4754 40.388L99.6739 40.0925L99.9058 39.8287L100.072 39.5015L100.271 39.2051L100.404 38.8762L100.469 38.7135L100.569 38.5816L100.669 38.1876L100.802 37.827L100.867 37.433L100.9 37.236L100.969 37.0724V36.842L101.001 36.645L101.067 36.2501L101.133 35.3645V23.7396ZM116.093 23.7396V33.952L116.191 36.4154H116.093L107.37 23.7396H103.92V42.3571H107.17V31.2591L107.07 28.83L116.491 42.3571H119.276V23.7396H116.093ZM141.534 42.3571V23.7396H138.283V42.3571H141.534ZM144.453 42.3571H155V39.4681H147.704V23.7396H144.453V42.3571ZM106.872 4.63042V1.70794H91.5811V4.63042H97.6172V20.2595H100.834V4.63042H106.872ZM81.3647 10.1465L81.5649 9.78501L81.7633 9.45696L81.8956 9.0955L82.0623 8.76746V8.53704H82.0949L82.1602 8.34004L82.2599 7.94604V7.71649L82.2943 7.51861V7.28907L82.3251 7.09207L82.2943 6.53448L82.2255 6.00856L82.1276 5.51605L81.9935 5.05609L81.7624 4.597L81.497 4.17046L81.1989 3.74392L80.8337 3.34903L80.4016 2.95503L79.906 2.62698L79.3406 2.33148L78.7444 2.13448L78.0486 1.93748L77.3183 1.80644L76.4893 1.70794H69.3253V20.2604H72.5761V13.1015H75.4945L75.8931 13.1349L76.3235 13.4304L76.7548 13.9229L77.2187 14.6124L80.0718 20.2604H83.7548L80.4695 13.9229L79.9712 13.1015L79.5734 12.5105L79.1757 12.0839L78.8776 11.8544L78.9429 11.7884V11.755H79.0425L79.241 11.6899L79.6061 11.5589L79.9386 11.361L80.2711 11.1966L80.5348 10.9336L80.6688 10.8026L80.7341 10.7366V10.7041H80.8337L81.0992 10.4086L81.3647 10.1465ZM78.3467 5.45097L78.6448 5.81243L78.9102 6.27152L79.0425 6.7649L79.1096 7.38845L79.0752 7.65053L79.0425 7.78157V7.94604L78.9429 8.20899L78.8776 8.50362L78.6121 8.96358L78.4454 9.16146L78.3802 9.19401L78.3475 9.25908L78.2805 9.39101L78.0151 9.55546L77.8837 9.62143L77.8175 9.65485L77.784 9.71993L77.485 9.85097L77.2195 9.98201L76.8544 10.048L76.5219 10.1465L76.1242 10.1799L75.7264 10.2124H72.5752V4.6313H75.8587L76.6216 4.66384L77.2848 4.8283L77.8493 5.05872L78.0803 5.22319L78.3467 5.45097ZM10.7465 0L9.58586 0.0659645L8.524 0.230423L7.49565 0.492502L6.53433 0.853968L5.57213 1.28051L4.70958 1.80644L3.88056 2.39744L3.15119 3.12037L2.42182 3.84242L1.79123 4.66296L1.2603 5.51693L0.829028 6.46852L0.464785 7.42099L0.231952 8.43942L0.0661465 9.48951L0 10.639V11.1649L0.0661465 11.7225L0.231952 12.7743L0.464785 13.7585L0.829028 14.7426L1.2603 15.63L1.49225 16.0565L1.79123 16.5165L2.42182 17.3379L2.75255 17.731L3.15119 18.1585L3.88056 18.8145L4.70958 19.439L5.57213 19.964L6.53433 20.424L7.49565 20.752L8.524 21.015L9.58586 21.1795L10.7465 21.3105L11.2774 21.2445L11.8419 21.1795L12.9029 21.015L13.8977 20.752L14.8925 20.424L15.0918 20.2929L15.1915 20.2261L15.3238 20.1944L15.7886 19.964L16.2198 19.7019L16.6837 19.439L17.0815 19.1109L17.2808 18.9465L17.5128 18.8145L17.9114 18.4865L18.3427 18.1585L18.6743 17.731L19.0059 17.3379L19.1391 17.1066L19.3049 16.9114L19.6365 16.5165L19.8684 16.0565L20.1339 15.63L20.3659 15.17L20.3985 15.039L20.4646 14.9405L20.5978 14.7426L20.9294 13.7585L21.1949 12.7743L21.3281 11.7225V11.427L21.3607 11.1649L21.4268 10.639L21.3281 9.48951L21.1949 8.43942L20.9294 7.42099L20.5978 6.46852L20.1339 5.51693L19.6365 4.66296L19.0059 3.84242L18.3427 3.12037L17.9114 2.72548L17.5128 2.39744L17.0815 2.0694L16.6837 1.80644L16.2198 1.51094L15.7886 1.28051L14.8925 0.853968L13.8977 0.492502L12.9029 0.230423L11.8419 0.0659645L11.2774 0H10.7465ZM44.4465 10.639L44.3477 9.48951L44.1819 8.43942L43.9164 7.42099L43.6175 6.46852L43.1535 5.51693L42.6561 4.66296L42.0255 3.84242L41.3623 3.12037L40.9311 2.72548L40.5324 2.39744L40.102 2.0694L39.7034 1.80644L39.2395 1.51094L38.8082 1.28051L37.9122 0.853968L36.9173 0.492502L35.9225 0.230423L34.8615 0.0659645L34.2971 0H33.7661L32.6046 0.0659645L31.5445 0.230423L30.5162 0.492502L29.554 0.853968L28.5918 1.28051L27.7292 1.80644L26.9002 2.39744L26.1708 3.12037L25.4415 3.84242L24.81 4.66296L24.2799 5.51693L23.8478 6.46852L23.4835 7.42099L23.219 8.43942L23.0532 9.48951L22.9861 10.639V11.1649L23.0532 11.7225L23.219 12.7743L23.4835 13.7585L23.8478 14.7426L24.2799 15.63L24.5119 16.0565L24.81 16.5165L25.4415 17.3379L25.7722 17.731L26.1708 18.1585L26.9002 18.8145L27.7292 19.439L28.5918 19.964L29.554 20.424L30.5162 20.752L31.5445 21.015L32.6046 21.1795L33.7661 21.3105L34.2971 21.2445L34.8615 21.1795L35.9225 21.015L36.9173 20.752L37.9122 20.424L38.1115 20.2929L38.2102 20.2261L38.3434 20.1944L38.8082 19.964L39.2395 19.7019L39.7034 19.439L40.102 19.1109L40.3005 18.9465L40.5324 18.8145L40.9311 18.4865L41.3623 18.1585L41.6939 17.731L42.0255 17.3379L42.1587 17.1066L42.3236 16.9114L42.6561 16.5165L42.8881 16.0565L43.1535 15.63L43.3855 15.17L43.419 15.039L43.4852 14.9405L43.6175 14.7426L43.9164 13.7585L44.1819 12.7743L44.3477 11.7225V11.427L44.3803 11.1649L44.4465 10.639ZM21.4268 33.427L21.3281 32.2766L21.1949 31.2274L20.9294 30.2081L20.5978 29.2565L20.1339 28.3049L19.6365 27.451L19.0059 26.6304L18.3427 25.9066L17.9114 25.5135L17.5128 25.1854L16.6837 24.561L16.2198 24.2655L15.7886 24.0351L14.8925 23.6086L13.8977 23.248L12.9029 23.0176L11.8419 22.8548L11.2774 22.7871H10.7465L9.58586 22.8548L8.524 23.0176L7.49565 23.248L6.53433 23.6086L5.57213 24.0351L4.70958 24.561L3.88056 25.1854L3.15119 25.9066L2.42182 26.6304L1.79123 27.451L1.2603 28.3049L0.829028 29.2565L0.464785 30.2081L0.231952 31.2274L0.0661465 32.2766L0 33.427V33.952L0.0661465 34.5105L0.231952 35.5615L0.464785 36.5465L0.829028 37.5315L1.2603 38.418L1.49225 38.8445L1.79123 39.3045L2.42182 40.125L2.75255 40.5199L3.15119 40.9465L3.88056 41.6017L4.70958 42.2261L5.57213 42.7195L6.53433 43.1786L7.49565 43.5075L8.524 43.7696L9.58586 43.9015L10.7465 44L11.2774 43.9332L11.5429 43.9015H11.8419L12.9029 43.7696L13.8977 43.5075L14.8925 43.1786L15.0918 43.0484L15.1915 42.9816L15.3238 42.9482L15.7886 42.7195L16.2198 42.4574L16.6837 42.2261L17.0815 41.8981L17.2808 41.7336L17.5128 41.6017L17.9114 41.2745L18.3427 40.9465L18.6743 40.5199L19.0059 40.125L19.1391 39.8955L19.3049 39.6985L19.6365 39.3045L19.8684 38.8445L20.1339 38.418L20.3659 37.9571L20.3985 37.827L20.4646 37.7294L20.5978 37.5315L20.9294 36.5465L21.1949 35.5615L21.3281 34.5105V34.215L21.3607 33.952L21.4268 33.427ZM44.4465 33.427L44.3477 32.2766L44.1819 31.2274L43.9164 30.2081L43.6175 29.2565L43.1535 28.3049L42.6561 27.451L42.0255 26.6304L41.3623 25.9066L40.9311 25.5135L40.5324 25.1854L39.7034 24.561L39.2395 24.2655L38.8082 24.0351L37.9122 23.6086L36.9173 23.248L35.9225 23.0176L34.8615 22.8548L34.2971 22.7871H33.7661L32.6046 22.8548L31.5445 23.0176L30.5162 23.248L29.554 23.6086L28.5918 24.0351L27.7292 24.561L26.9002 25.1854L26.1708 25.9066L25.4415 26.6304L24.81 27.451L24.2799 28.3049L23.8478 29.2565L23.4835 30.2081L23.219 31.2274L23.0532 32.2766L22.9861 33.427V33.952L23.0532 34.5105L23.219 35.5615L23.4835 36.5465L23.8478 37.5315L24.2799 38.418L24.5119 38.8445L24.81 39.3045L25.4415 40.125L25.7722 40.5199L26.1708 40.9465L26.9002 41.6017L27.7292 42.2261L28.5918 42.7195L29.554 43.1786L30.5162 43.5075L31.5445 43.7696L32.6046 43.9015L33.7661 44L34.2971 43.9332L34.5616 43.9015H34.8615L35.9225 43.7696L36.9173 43.5075L37.9122 43.1786L38.1115 43.0484L38.2102 42.9816L38.3434 42.9482L38.8082 42.7195L39.2395 42.4574L39.7034 42.2261L40.102 41.8981L40.3005 41.7336L40.5324 41.6017L40.9311 41.2745L41.3623 40.9465L41.6939 40.5199L42.0255 40.125L42.1587 39.8955L42.3236 39.6985L42.6561 39.3045L42.8881 38.8445L43.1535 38.418L43.3855 37.9571L43.419 37.827L43.4852 37.7294L43.6175 37.5315L43.9164 36.5465L44.1819 35.5615L44.3477 34.5105V34.215L44.3803 33.952L44.4465 33.427Z" fill="white"/>
</svg>
