<svg width="182" height="38" viewBox="0 0 182 38" fill="none" xmlns="http://www.w3.org/2000/svg">
<g clip-path="url(#clip0_430_832)">
<path d="M14.3691 27.042C17.2823 31.8459 22.6253 35.069 28.5716 35.069C37.3577 35.069 42.1943 27.4432 42.1943 27.4432L42.8168 29.4745C38.7492 34.7951 31.4825 38.0003 23.3526 38.0003C13.9923 38.0003 5.91977 33.5095 2.20535 27.0332C0.806816 24.594 0.026123 21.8693 0.026123 18.9998C0.026123 8.50621 10.4686 0 23.3522 0C32.4553 0 39.7844 3.92147 43.6318 9.60444L28.3577 18.8033L37.0746 5.34154C34.5808 3.7641 31.5211 2.28696 28.3577 2.28696C19.4152 2.28696 12.0498 9.7922 12.0498 18.7857C12.0498 21.7991 12.9007 24.6304 14.3691 27.042ZM55.2666 27.0366C55.2208 27.3435 55.1979 27.6533 55.1981 27.9636C55.1981 31.3775 57.9502 34.1457 61.345 34.1457C64.7397 34.1457 67.4915 31.3779 67.4915 27.9636C67.4916 27.6522 67.4686 27.3412 67.4226 27.0332C66.978 24.0624 64.4264 21.7819 61.3446 21.7819C58.2632 21.7819 55.7112 24.0624 55.2666 27.0366ZM78.0746 27.0332L81.1296 37.3827H70.4134L68.3064 30.2958C66.8954 34.3794 62.1337 37.3827 56.4771 37.3827C49.7091 37.3827 44.2231 33.0836 44.2231 27.7796C44.2231 27.5314 44.2352 27.2848 44.2587 27.0332C44.7402 22.0828 50.0264 18.1765 56.4771 18.1765C60.1385 18.1765 63.4248 19.4348 65.6702 21.4296L62.7512 11.6145H50.4522C50.4522 11.6145 52.4985 10.3802 61.573 7.05946C70.6475 3.73911 73.5231 11.6145 73.5231 11.6145L78.0746 27.0332ZM112.337 27.0332V37.3827H101.31V14.6441C101.31 13.8406 100.993 13.07 100.428 12.5018C99.8632 11.9337 99.097 11.6145 98.2981 11.6145C97.6914 11.6143 97.0987 11.7985 96.5978 12.1428C96.0968 12.4871 95.7109 12.9755 95.4906 13.5441V37.3827H84.6687V11.6145H78.3574C78.3574 11.6145 87.1374 6.26483 90.1819 6.26483C93.0673 6.26483 95.2029 8.49439 95.4698 11.3345C99.7161 9.03101 103.927 6.26483 106.824 6.26483C109.817 6.26483 112.254 8.66392 112.337 11.655V27.0332ZM129.323 27.0332L130.858 32.1343C130.887 34.3207 132.673 36.0697 134.866 36.0697C137.108 36.0697 138.924 34.2426 138.924 31.9884C138.924 31.8287 138.915 31.6717 138.898 31.517L137.593 27.0332L133.012 11.2869C132.786 9.24646 131.067 7.66025 128.978 7.66025C126.91 7.66025 124.939 9.60342 124.687 11.6141L129.323 27.0332ZM146.871 27.0353C144.783 33.4034 138.819 38.0003 131.787 38.0003C124.755 38.0003 118.791 33.4038 116.702 27.0332C116.173 25.4186 115.904 23.7293 115.906 22.0294C115.906 13.2088 123.016 6.05883 131.787 6.05883C140.557 6.05883 147.667 13.2088 147.667 22.0294C147.667 23.7777 147.388 25.4609 146.871 27.0353ZM165.128 27.0332V37.3827H154.306V11.6145H148.254C148.254 11.6145 156.774 6.26483 159.819 6.26483C162.705 6.26483 164.84 8.49439 165.108 11.3345C169.354 9.03101 173.564 6.26483 176.461 6.26483C179.455 6.26483 181.891 8.66392 181.974 11.655V37.3827H170.948V14.6441C170.948 13.8406 170.63 13.07 170.065 12.5018C169.5 11.9337 168.734 11.6145 167.935 11.6145C167.329 11.6143 166.736 11.7985 166.235 12.1428C165.734 12.4871 165.348 12.9755 165.128 13.5441V27.0332Z" fill="#CC2229"/>
</g>
<defs>
<clipPath id="clip0_430_832">
<rect width="182" height="38" fill="white"/>
</clipPath>
</defs>
</svg>
